<svg xmlns="http://www.w3.org/2000/svg" width="490" height="138" viewBox="0 0 490 138">
  <metadata><?xpacket begin="﻿" id="W5M0MpCehiHzreSzNTczkc9d"?>
<x:xmpmeta xmlns:x="adobe:ns:meta/" x:xmptk="Adobe XMP Core 5.6-c138 79.159824, 2016/09/14-01:09:01        ">
   <rdf:RDF xmlns:rdf="http://www.w3.org/1999/02/22-rdf-syntax-ns#">
      <rdf:Description rdf:about=""/>
   </rdf:RDF>
</x:xmpmeta>
                                                                                                    
                                                                                                    
                                                                                                    
                                                                                                    
                                                                                                    
                                                                                                    
                                                                                                    
                                                                                                    
                                                                                                    
                                                                                                    
                                                                                                    
                                                                                                    
                                                                                                    
                                                                                                    
                                                                                                    
                                                                                                    
                                                                                                    
                                                                                                    
                                                                                                    
                                                                                                    
                           
<?xpacket end="w"?></metadata>
<defs>
    <style>
      .cls-1 {
        fill: #b26181;
        fill-rule: evenodd;
      }
    </style>
  </defs>
  <path id="Фигура_7" data-name="Фигура 7" class="cls-1" d="M459.222,88.945c0-2.565-1.755,10.529-3.915,10.529a14.349,14.349,0,0,1-2.43-.675c-13.364,17.954-18.224,27-18.224,31.319,0,2.159,1.08,3.1,1.08,4.184,0,2.025-2.835,3.645-4.86,3.645-1.62,0-2.16-.81-2.16-2.565,0-11.069,23.219-39.823,24.029-42.253a39.849,39.849,0,0,0,1.485-12.149c0-13.365-2.565-27.809-7.83-27.809-0.81,0-1.62.135-1.89,0.135a0.618,0.618,0,0,1-.54-0.675c0-.54.675-1.62,2.97-3.24,0.9-.631,2.162-2.939,3.383-4.409-3.9,1.009-11.551,1.439-15.667,1.439-3.645,10.26-8.5,26.324-10.934,36.449a18.2,18.2,0,0,0-.675,3.915c0,1.62.675,2.295,1.485,2.295,4.724,0,11.879-9.585,13.5-9.585a0.676,0.676,0,0,1,.675.81,3.764,3.764,0,0,1-1.485,2.97c-2.835,2.565-12.554,11.2-17.414,11.2-2.295,0-3.1-1.62-3.1-3.915,0-3.645,2.16-9.18,3.24-12.689,3.915-12.419,6.615-23.624,8.639-30.914-0.81.135-5.939,0.54-9.044,0.54-2.3,0-3.105-.54-3.105-1.215,0-1.35,3.24-3.51,4.59-3.51h8.639l0.54-1.89a10.19,10.19,0,0,0,.405-2.295c0-1.08-.54-1.08-0.54-1.89a5.469,5.469,0,0,1,.405-1.62c3.51-11.2,5.535-14.309,11.475-14.309,1.215,0,2.025.4,2.16,1.215-1.08,2.295-4.455,10.395-8.235,20.789h13.1c2.7,0,3.779.4,3.779,0.81a0.568,0.568,0,0,1-.1.247c3.662,1.3,6.71,14.627,6.71,27.967,0,2.16-.135,4.32-0.135,6.48,0,1.485.405,2.16,1.08,2.16,4.32,0,21.869-27.674,21.869-32.534a0.683,0.683,0,0,0-.675-0.81c-0.54,0-1.35.54-2.025,0.54a1.112,1.112,0,0,1-1.08-.675c0-2.43,7.29-6.075,10.26-6.075a2,2,0,0,1,.945.135,2.425,2.425,0,0,1,.4,1.485C490,50.877,463.542,83.95,459.222,88.945Zm-61.558,1.08a0.339,0.339,0,0,0,.27.405c2.43-.135,8.37-6.75,11.474-6.75a0.929,0.929,0,0,1,1.08.675c0,2.16-12.284,8.775-14.309,10.26-2.835,2.16-6.075,7.29-8.91,7.29a1.66,1.66,0,0,1-1.755-1.485c0-1.755,3.645-3.375,5-6.345,1.215-2.835,7.425-25.379,9.18-32.264-5.13,7.56-24.434,32.8-32.534,32.8-1.215,0-1.89-.945-1.89-2.43a17.334,17.334,0,0,1,1.485-5.8c2.025-4.86,10.395-21.869,10.395-27.134,0-1.215-.54-1.35-0.54-2.295a8.814,8.814,0,0,1,.27-1.485c2.97-11.07,4.59-14.174,11.069-14.174,1.215,0,2.025.405,2.295,1.215-1.755,4.32-16.2,38.608-16.2,41.713,0,0.405.135,0.54,0.4,0.54,0.675,0,1.89-1.08,3.24-2.16,10.529-8.1,18.089-18.764,23.759-29.159,0.135-3.915,2.565-13.094,9.719-13.094a1.5,1.5,0,0,1,1.62,1.215c-0.945,2.97-4.185,11.07-7.154,19.709C402.659,69.776,397.664,87.055,397.664,90.025ZM348.8,93.13c-1.755,0-2.97-.945-3.375-3.375,0-4.86,2.835-15.389,4.455-20.924-5.265,7.29-18.225,24.974-25.919,24.974-2.43,0-3.24-1.485-3.24-4.86,0-12.419,13.634-44.548,22.274-44.548h0.4l1.485-1.08a4.7,4.7,0,0,1,3.78-1.35c3.645,0,8.234,2.16,9.719,2.16,1.215,0,1.35-2.16,3.51-2.16,2.565,0,3.375,1.215,3.375,2.97,0,2.565-2.025,6.345-2.835,8.5-0.27.675-2.295,1.08-2.565,1.755-4.454,12.419-7.559,27.4-7.559,29.564,0,2.43.81,3.375,1.89,3.375,4.319,0,11.069-9.18,11.609-9.18,0.135,0,.27.135,0.27,0.54a5.394,5.394,0,0,1-1.35,3.1C362.024,85.03,353.655,93.13,348.8,93.13Zm8.1-45.628a0.683,0.683,0,0,0-.675-0.81h-0.4c-1.89,0-3.645-.54-6.075-0.54a15.949,15.949,0,0,0-4.05.54c-4.05,1.08-18.764,27.944-18.764,38.473,0,1.62.54,2.295,1.35,2.295,4.454,0,18.359-18.089,19.574-19.979C352.17,60.461,356.894,50.337,356.894,47.5ZM304.111,67.751c-2.294,0-4.184-.135-4.859-0.135-2.7,6.885-4.455,13.5-4.455,17.819,0,3.645,1.35,5.4,4.05,5.4,6.344,0,14.984-14.309,16.6-14.309a0.9,0.9,0,0,1,.945,1.08c0,5.13-13.5,17.144-19.034,17.144-3.375,0-8.91-1.755-8.91-9.045a17.512,17.512,0,0,1,.405-3.51c1.755-9.045,3.78-12.959,4.185-15.929-0.54-.135-2.025-0.81-2.025-2.16,0-1.215,1.35-1.485,2.3-1.485h0.945c1.485-2.97,2.835-6.075,6.21-12.285,3.1-5.8,8.1-7.155,14.444-7.155,2.835,0,5.265,2.97,6.345,8.235a37.29,37.29,0,0,1,.81,6.75C322.066,66.671,308.836,67.751,304.111,67.751Zm8.235-19.979c-4.185,0-10.394,12.284-11.879,16.064,0.945,0,2.97.27,5.4,0.27,6.75,0,10.26-.945,10.53-6.21C316.4,50.607,313.966,47.772,312.346,47.772ZM284.4,78.146c0,3.915-2.16,7.425-4.725,10.125-10.125,10.665-24.569,14.31-38.744,14.31-8.774,0-20.654-1.485-28.889-4.455,0,1.215.135,2.3,0.135,3.51a3.915,3.915,0,0,1-.675,2.43c-2.429.405-3.1-5.805-3.1-7.155-2.43-1.08-10.53-5.265-10.53-8.5a0.683,0.683,0,0,1,.675-0.81c0.81,0,8.235,5.13,9.855,5.94,0-22,16.064-63.312,25.514-82.752-9.045-2.16-18.5-3.915-27.809-3.915-13.9,0-31.049,4.32-31.049,21.464,0,9.99,5.94,19.3,13.094,25.919,0.135-.675.405-2.7,1.35-2.7,1.485,0,3.78,5.8,3.78,6.885,0,1.35-1.35,1.755-2.43,1.755-5.589,0-11.065-5.824-15.013-12.745a17.418,17.418,0,0,1-2.806,6.131c-1.35,1.89-4.32,4.32-5.67,4.32a0.716,0.716,0,0,1-.81-0.81c0-1.35,2.565-6.075,2.565-8.235,0-.675-0.135-0.945-0.675-0.945-6.344,0-21.869,24.7-27.674,43.063-1.08,1.485-3.914,3.24-5.534,3.24a1.418,1.418,0,0,1-1.215-.675c0-4.725,1.35-9.45,3.105-10.125,4.859-18.629,4.454-18.224,5.534-22.409a7.135,7.135,0,0,0,.27-2.16c0-1.35-.54-1.215-0.54-2.295a3.776,3.776,0,0,1,.27-1.485c2.835-11.07,5-14.714,10.935-14.714a1.764,1.764,0,0,1,1.89,1.08C154,45.207,146.84,60.6,143.735,74.5c3.355-6.71,19.516-33.16,28.99-33.471a33.734,33.734,0,0,1-2.8-11.617c0-20.654,20.114-25.919,36.989-25.919A137.3,137.3,0,0,1,235.666,7a16.5,16.5,0,0,1,4.05-6.345c1.215,0.135,2.835-.675,4.32-0.675,1.215,0,4.32,0,3.645,2.16a53.311,53.311,0,0,0-3.915,6.615c11.07,2.835,34.019,11.07,34.019,25.514,0,13.23-19.439,20.249-29.7,22.949C259.291,57.761,284.4,63.3,284.4,78.146Zm-12.96-43.6c0-11.879-20.789-19.439-29.7-22h-0.135c-8.1,14.039-14.444,29.7-19.439,45.088,3.78-1.08,7.29-.945,11.07-1.62C242.821,54.387,271.44,48.042,271.44,34.542ZM239.176,60.461c-3.644,0-17.279,1.89-18.494,1.755-3.375,10.53-6.885,21.6-8.37,32.669,8.91,3.51,19.17,4.59,28.754,4.59,9.99,0,23.894-1.485,31.319-9.045,2.97-2.97,5.67-6.75,5.67-11.069C278.055,64.106,250.111,60.461,239.176,60.461ZM255.718,85.4c-0.571.416-1.117,0.87-1.656,1.328a12.355,12.355,0,0,1-3.216,2.327,0.836,0.836,0,0,1-.147.021c0.344-1.1.265-2.065-.845-2.619,0.348,0.172,3.473-5.912,3.789-6.484a2.8,2.8,0,0,1,.862-1.084c0.819-.514,2.193.5,2.825,1.007a8.583,8.583,0,0,1,1.836,1.78c0.229,0.333.482,0.65,0.691,0.994a0.515,0.515,0,0,1-.332.879A12.88,12.88,0,0,0,255.718,85.4Zm-2.692-6.136q-0.9,1.686-1.783,3.378c-0.261.5-.452,1.035-0.678,1.553a0.464,0.464,0,0,1-.186.264,3.168,3.168,0,0,1,.1-0.908c0.043-.311.088-0.622,0.141-0.931a13.784,13.784,0,0,1,.417-1.8c0.044-.141.092-0.282,0.142-0.421a12.853,12.853,0,0,1,1.452-2.811c0.525-.78,1.43-1.6,1.322-2.63,0-.017,0-0.034,0-0.051a4.3,4.3,0,0,0-.248-1.273,0.737,0.737,0,0,0-.586.848,6.222,6.222,0,0,1-1.128,2.678c-0.321.5-.659,0.987-0.944,1.508a9.915,9.915,0,0,0-.618,1.606c-0.067-.123-0.138-0.236-0.193-0.356a2.789,2.789,0,0,1-.329-2.055c0.126-.408.292-0.8,0.454-1.2a16.457,16.457,0,0,0,.677-1.536,3.69,3.69,0,0,0-.874-3.6,0.864,0.864,0,0,1-.318-0.454,4.632,4.632,0,0,1,1.274.019c0.668,0.18,1.3.488,1.953,0.722a5.5,5.5,0,0,0,.776.148,1.846,1.846,0,0,0-.246-0.258c-0.711-.451-1.421-0.909-2.144-1.342a3.949,3.949,0,0,0-2.689-.435c-0.794.127-1.435,0.58-2.2,0.768a11.1,11.1,0,0,1-1.573.068,0.727,0.727,0,0,1-.652-0.161c0.467-2.239,3.12-2.274,4.917-2.147a21.938,21.938,0,0,1,5.231,1.058,3.131,3.131,0,0,1,1.9,3.054,6.857,6.857,0,0,1-1.322,3.564C254.38,77.176,253.613,78.153,253.026,79.259Zm1.329-9.871,0.042,0.006c0.042,0.006.084,0.014,0.125,0.022a4.218,4.218,0,0,1,.49.2,2.051,2.051,0,0,1,.905,1.011c0,0.01.007,0.02,0.011,0.031a2.047,2.047,0,0,0-.916-1.024A3.28,3.28,0,0,0,254.355,69.388ZM241.2,73.114a1.487,1.487,0,0,0-.08,1.724c0.094,0.2.167,0.406,0.292,0.714a30.316,30.316,0,0,1-3.233-.9l0.466-.572,1.653,0.37,0.022-.055c-0.276-.211-0.568-0.4-0.825-0.637-0.723-.661-0.536-0.866-0.024-1.587a2.315,2.315,0,0,1,1.951-.909,4.814,4.814,0,0,1,1.94.177c0.107,0.045.209,0.105,0.324,0.164-0.617.3-1.207,0.564-1.766,0.88A2.727,2.727,0,0,0,241.2,73.114Zm1.032-2.93a3.61,3.61,0,0,0-2.184.139,3.141,3.141,0,0,0-1.509,1.475c-0.239.506-.342,1.075-0.63,1.554a1.392,1.392,0,0,1-1.047.72c-0.432.012-.815-0.3-1.258-0.3a1.227,1.227,0,0,0-1.135.632,1.7,1.7,0,0,0-.015,1.067,35.766,35.766,0,0,0,1.267,3.891,1.314,1.314,0,0,1,.026.224c-0.332-.089-0.622-0.18-0.918-0.244-0.425-.09-0.85-0.178-1.28-0.237-0.474-.064-0.953-0.093-1.43-0.141a0.487,0.487,0,0,1-.16-0.052,2.282,2.282,0,0,1-1.013-3.021,6.794,6.794,0,0,1,1.064-1.378c1.036-1.159,1.943-2.431,3-3.571a9.4,9.4,0,0,1,3.765-2.656,5.14,5.14,0,0,1,3.427,0c0.648,0.247,2.119.844,0.974,1.665A1.423,1.423,0,0,1,242.23,70.183Zm7.252,14.408a2.679,2.679,0,0,1-1.027,1.353,1.976,1.976,0,0,1-1.174.237,3.882,3.882,0,0,1-1.256-.348c-1.188-.536-2.372-1.077-3.523-1.686-1.029-.541,2.522-2.726,2.979-2.938A17.651,17.651,0,0,0,248.7,79.55c0.262-.195.34-0.392,0.59-0.192,0.566,0.452.642,1.883,0.664,2.539A6.553,6.553,0,0,1,249.482,84.592Zm-11.325-3.773c-0.479-.276-0.916-0.526-1.349-0.783a0.311,0.311,0,0,1-.108-0.164c-0.238-.693-0.47-1.388-0.706-2.082-0.182-.532-0.371-1.062-0.546-1.6A1.748,1.748,0,0,1,235.514,75a0.872,0.872,0,0,1,1.146-.349,11.01,11.01,0,0,0,5.614,1.619,10.532,10.532,0,0,0,2.989-.473,10.01,10.01,0,0,0,1.41-.558,3.922,3.922,0,0,0,1.239-.723,2.307,2.307,0,0,1-.116.726,10.133,10.133,0,0,1-1.8,2.728c-0.456.5-.9,1.023-1.4,1.479-0.621.569-1.309,1.062-1.939,1.62a20.465,20.465,0,0,0-1.494,1.475c-0.3.329-.363,0.349-0.7,0.059a17.217,17.217,0,0,0-1.529-1.219,0.625,0.625,0,0,1-.234-0.767c0.08-.394.212-0.781,0.263-1.177a1.86,1.86,0,0,0-.674-1.729,11.209,11.209,0,0,0-1.235-.9A5.048,5.048,0,0,1,238.157,80.819Zm0.991-3.2a4.483,4.483,0,0,0,3.092,1.178,5.261,5.261,0,0,0,2-.445,1.945,1.945,0,0,0,1.2-1.084c-0.52.107-.971,0.236-1.43,0.285a8.94,8.94,0,0,1-3.281-.2,11.708,11.708,0,0,1-3.352-1.54,3.808,3.808,0,0,0-.661-0.272C237.532,76.262,238.388,76.889,239.148,77.616Zm8.766-4.055c0.314,0.494-.44.658-0.743,0.8-0.456.209-.9,0.438-1.373,0.618,0,0,0,0,0,0l-0.006,0c-0.115.02-.206,0-0.2-0.125a0.006,0.006,0,0,1,0,0,1.477,1.477,0,0,0,.242-0.765,0.705,0.705,0,0,0-.334-0.512,1.089,1.089,0,0,0-.817-0.056,2.525,2.525,0,0,0-1.065.568,1.162,1.162,0,0,0-.288.359,0.566,0.566,0,0,0-.025.45,1.257,1.257,0,0,1,.852-0.694,0.75,0.75,0,0,1,.688.284,0.619,0.619,0,0,1,0,.73,0.955,0.955,0,0,1-.613.284,2.623,2.623,0,0,1-2.268-.466,1.205,1.205,0,0,1-.355-1.062,1.347,1.347,0,0,1,.477-0.738,5.712,5.712,0,0,1,3.2-1.156c0.384-.019.769,0.01,1.154,0,0.327,0,.646-0.062.967-0.062l0,0a0.371,0.371,0,0,1,.056.326,1.956,1.956,0,0,0-.028.339,1.245,1.245,0,0,0,.268.621A2.533,2.533,0,0,1,247.914,73.561Zm0.459-1.366c0.491-.621,1.607.4,1.764,0.886a3.289,3.289,0,0,1-.01,1.614,8.283,8.283,0,0,1-1.055,2.946,8.156,8.156,0,0,1-3.3,2.706,14.124,14.124,0,0,0-1.8.9,8.64,8.64,0,0,0-1.617,1.58,3.479,3.479,0,0,1-.386.476l-0.021.017a1.22,1.22,0,0,0-.3.169,4.116,4.116,0,0,1,1.56-2.206c0.725-.7,1.523-1.313,2.289-1.964a9.966,9.966,0,0,0,2.6-3.019,4.8,4.8,0,0,0,.519-2.472C248.588,73.4,248.057,72.594,248.373,72.195Zm-15.659,7.518a10.878,10.878,0,0,1,3.144.985c0.469,0.223.927,0.469,1.374,0.732,3.738,2.549,7.325,4.976,11.84,5.785a0.624,0.624,0,0,1,.253.1c0.594,0.414.331,1.828,0.074,2.313a5.137,5.137,0,0,1-3,2.306A37.914,37.914,0,0,1,246.788,99l-2.726-.16a35.252,35.252,0,0,0-.37-6.55,5.378,5.378,0,0,1-1.025-.167,10.79,10.79,0,0,1-2.906-1.221c-0.433-.269-0.862-0.506-1.279-0.809q-0.657-.477-1.285-0.991a28.935,28.935,0,0,1-4.451-4.536,16.068,16.068,0,0,1-1.837-2.69,0.05,0.05,0,0,1,0-.01,0.6,0.6,0,0,1-.019-0.106,1.917,1.917,0,0,0,.753.147,25.214,25.214,0,0,1,3.16.651q0.81,0.233,1.6.527,0.395,0.147.785,0.31a4.085,4.085,0,0,0,.742.326c0.1-.071-0.031-0.128-0.094-0.183a6.826,6.826,0,0,0-1-.821,9.634,9.634,0,0,0-1.215-.612,15.4,15.4,0,0,0-2.576-.8c-0.713-.162-1.433-0.294-2.153-0.426a14.115,14.115,0,0,1-2.108-.43,1.64,1.64,0,0,1,.831-0.538A6.564,6.564,0,0,1,232.714,79.713Zm-1.359,4.693c0.5,0.743.941,1.512,1.485,2.224a18.113,18.113,0,0,0,1.761,1.983,18.922,18.922,0,0,0,4.785,3.347c0.68,0.339,1.4.591,2.105,0.881,0,0.032.006,0.062,0.008,0.094-0.954.31-1.893,0.689-2.866,0.913a3.033,3.033,0,0,1-3.065-.878c-0.829-.886-1.576-1.838-2.469-2.641l0,0-0.171-.186a6.164,6.164,0,0,0-2.077-1.3l-0.023-.01c-0.668-.331-1.36-0.616-2.053-0.889l-0.089-.035,0,0c-0.391-.191-0.781-0.388-1.168-0.586a1.41,1.41,0,0,1-.195-0.12l0,0a0.926,0.926,0,0,1-.266-0.343,0.756,0.756,0,0,1-.012-0.5,0,0,0,0,1,0,0,3.1,3.1,0,0,1,1.124-1.113,9.726,9.726,0,0,1,2.6-1.18A0.506,0.506,0,0,1,231.355,84.406ZM133.206,57.761c0,22.679-14.984,38.2-24.569,38.2-4.59,0-7.83-3.51-7.83-11.34a36.2,36.2,0,0,1,.54-6.21c1.35-7.695,10.26-36.583,22.274-36.583h0.945c0-2.295,1.485-4.59,4.05-4.59,4.05,0.405,2.295,15.389,7.695,15.929,1.755,0.27,2.565.81,2.565,1.485s-0.945,1.62-2.565,2.43A8.043,8.043,0,0,1,133.206,57.761Zm-9.18-9.989c-6.344,0-15.389,25.109-16.6,31.859a32.781,32.781,0,0,0-.54,5.67c0,4.59,1.485,6.615,3.78,6.615,6.345,0,18.764-16.2,18.764-35.234C127.131,55.467,125.376,47.772,124.026,47.772Zm-36.585-24.3c-2.835,8.64-5.67,16.739-8.775,26.864,2.835,0,20.114,0,23.084,1.35,1.485,0.945,0,1.755-1.08,1.89-1.35,0-12.284,1.215-23.489,1.755C71.647,75.716,65.3,101.905,43.163,110.139c-8.37,3.105-24.434,1.08-31.049-9.854A38.1,38.1,0,0,1,6.849,79.9c0.135-4.995,2.43-7.83,3.1-1.35,0,5.8,7.02,31.993,26.324,30.238,18.359-1.62,30.509-38.068,35.5-53.187-0.945,0-14.714.27-18.359-.4-1.62-.81-1.62-4.32,0-4.32,1.89,0,10.395-.54,19.844-0.54,3.24-9.72,6.615-21.059,9.45-29.564C65.437,13.213,48.428,7,28.718,7c-13.5,0-23.624,4.05-23.624,12.149,0,10.8,14.444,30.509,24.029,37.259,4.995,3.51,9.315,5.265,12.149,7.29,1.35,0.945,1.08,2.025-.81,1.62C21.159,61.136,2.529,38.727.774,21.988S11.844,0.659,26.018.659c21.059,0,36.719,8.37,57.913,16.334,1.89-5.535,3.51-10.125,4.455-10.26,4.86-1.08,5.94,1.89,7.965,5.13,1.485,3.645.945,6.345-3.24,2.565-1.89-2.97-4.185,3.24-4.32,4.455,14.309,5.13,27.809,8.775,30.644,4.995,1.485-2.025,6.479-1.485,1.89,3.24C113.9,34.812,96.486,27.793,87.441,23.473Z"/>
</svg>
